HIERARCHY
ROOT Hips
{
	OFFSET -3.958830 18.904000 13.208200
	CHANNELS 6 Xposition Yposition Zposition Zrotation Yrotation Xrotation 
	JOINT LHipJoint
	{
		OFFSET 0.000000 0.000000 0.000000
		CHANNELS 3 Zrotation Yrotation Xrotation
		JOINT LeftUpLeg
		{
			OFFSET 1.800000 -1.400000 0.085000
			CHANNELS 3 Zrotation Yrotation Xrotation
			JOINT LeftLeg
			{
				OFFSET 2.215000 -6.000000 0.000000
				CHANNELS 3 Zrotation Yrotation Xrotation
				JOINT LeftFoot
				{
					OFFSET 2.500000 -6.900000 0.000000
					CHANNELS 3 Zrotation Yrotation Xrotation
					JOINT LeftToeBase
					{
						OFFSET 0.200000 -0.500000 1.950000
						CHANNELS 3 Zrotation Yrotation Xrotation
						End Site
						{
							OFFSET 0.000000 0.000000 0.000000
						}
					}
				}
			}
		}
	}
	JOINT RHipJoint
	{
		OFFSET 0.000000 0.000000 0.000000
		CHANNELS 3 Zrotation Yrotation Xrotation
		JOINT RightUpLeg
		{
			OFFSET -1.800000 -1.400000 0.085000
			CHANNELS 3 Zrotation Yrotation Xrotation
			JOINT RightLeg
			{
				OFFSET -2.215000 -6.000000 0.000000
				CHANNELS 3 Zrotation Yrotation Xrotation
				JOINT RightFoot
				{
					OFFSET -2.500000 -6.900000 0.000000
					CHANNELS 3 Zrotation Yrotation Xrotation
					JOINT RightToeBase
					{
						OFFSET -0.200000 -0.500000 1.950000
						CHANNELS 3 Zrotation Yrotation Xrotation
						End Site
						{
							OFFSET 0.000000 0.000000 0.000000
						}
					}
				}
			}
		}
	}
	JOINT LowerBack
	{
		OFFSET 0.000000 0.000000 0.000000
		CHANNELS 3 Zrotation Yrotation Xrotation
		JOINT Spine
		{
			OFFSET -0.087000 1.940000 -0.288900
			CHANNELS 3 Zrotation Yrotation Xrotation
			JOINT Spine1
			{
				OFFSET 0.000000 1.950000 0.060000
				CHANNELS 3 Zrotation Yrotation Xrotation
				JOINT Neck
				{
					OFFSET 0.000000 0.000000 0.000000
					CHANNELS 3 Zrotation Yrotation Xrotation
					JOINT Neck1
					{
						OFFSET 0.000000 1.600000 0.340000
						CHANNELS 3 Zrotation Yrotation Xrotation
						JOINT Head
						{
							OFFSET 0.000000 1.667000 -0.240000
							CHANNELS 3 Zrotation Yrotation Xrotation
							End Site
							{
								OFFSET 0.000000 0.000000 0.000000
							}
						}
					}
				}
				JOINT LeftShoulder
				{
					OFFSET 0.000000 0.000000 0.000000
					CHANNELS 3 Zrotation Yrotation Xrotation
					JOINT LeftArm
					{
						OFFSET 2.700000 1.550000 -0.730000
						CHANNELS 3 Zrotation Yrotation Xrotation
						JOINT LeftForeArm
						{
							OFFSET 5.450000 0.000000 0.000000
							CHANNELS 3 Zrotation Yrotation Xrotation
							JOINT LeftHand
							{
								OFFSET 3.450000 0.000000 0.000000
								CHANNELS 3 Zrotation Yrotation Xrotation
								JOINT LeftHandIndex1
								{
									OFFSET 0.750000 0.000000 0.000000
									CHANNELS 3 Zrotation Yrotation Xrotation
									End Site
									{
										OFFSET 0.000000 0.000000 0.000000
									}
								}
							}
						}
					}
				}
				JOINT RightShoulder
				{
					OFFSET 0.000000 0.000000 0.000000
					CHANNELS 3 Zrotation Yrotation Xrotation
					JOINT RightArm
					{
						OFFSET -2.700000 1.550000 -0.730000
						CHANNELS 3 Zrotation Yrotation Xrotation
						JOINT RightForeArm
						{
							OFFSET -5.450000 0.000000 0.000000
							CHANNELS 3 Zrotation Yrotation Xrotation
							JOINT RightHand
							{
								OFFSET -3.450000 0.000000 0.000000
								CHANNELS 3 Zrotation Yrotation Xrotation
								JOINT RightHandIndex1
								{
									OFFSET -0.750000 0.000000 0.000000
									CHANNELS 3 Zrotation Yrotation Xrotation
									End Site
									{
										OFFSET 0.000000 0.000000 0.000000
									}
								}
							}
						}
					}
				}
			}
		}
	}
}
MOTION
Frames: 4
Frame Time: 0.016667
0.202400 16.418090 -6.135810 -3.065793 -3.706895 3.946626 -15.170731 13.850202 2.375783 3.746736 -0.602780 1.430529 -2.255529 6.990680 24.983780 -0.004990 5.582131 2.572065 0.957540 0.709690 0.847650 18.404726 -9.201383 4.232870 -4.312537 6.458528 -43.237022 13.918881 -9.389226 31.071213 -0.662936 -4.393948 2.563593 0.368670 -0.327160 0.368750 -3.748261 -4.162567 -7.769680 13.507706 -11.193207 18.536307 -5.237284 -9.754864 2.640645 1.126040 -5.053172 -8.745727 -11.402960 11.425295 29.948366 1.088880 9.244270 -25.080570 -15.519402 -8.425254 2.394083 -46.036605 -14.163810 -0.124667 -55.449621 -31.212447 12.373519 -3.268190 3.535171 0.715160 -0.211590 0.455930 0.166110 13.593487 7.625183 4.314520 55.901613 3.975666 -10.196044 34.597132 38.841922 7.426849 2.261823 -1.721251 0.092510 -0.082930 -0.442640 -0.264930 
0.189890 16.399590 -6.110410 -3.006542 -4.825760 4.309655 -15.188004 13.840987 2.388983 3.339468 -0.569825 1.246171 -2.443407 7.112735 25.380632 0.022538 5.625470 2.566388 0.957290 0.713450 0.839500 18.399815 -9.122315 4.292692 -3.748512 6.952526 -43.710578 13.417989 -9.213380 31.632371 -0.663369 -4.384333 2.576773 0.368940 -0.314000 0.361610 -3.706750 -4.246416 -7.789913 13.131965 -11.096343 18.586465 -4.669460 -9.703272 2.098785 0.961284 -5.465909 -8.680334 -12.128468 12.153922 29.478608 1.352210 9.553010 -24.729680 -16.059723 -7.867995 2.411563 -46.692429 -13.060993 -0.521075 -55.074722 -30.480982 11.778768 -3.266841 3.532888 0.706420 -0.209860 0.450370 0.177950 14.547448 7.469404 4.096050 55.115265 3.875397 -10.003753 34.353586 38.007912 7.226417 2.276821 -1.709063 0.091660 -0.074500 -0.449230 -0.254970 
0.167420 16.362410 -6.073980 -2.978175 -6.536173 5.082025 -15.211048 13.796487 2.385470 2.610152 -0.607649 0.583234 -2.506352 7.223929 26.309263 0.045763 5.689540 2.546735 0.952370 0.709750 0.824270 18.402963 -8.977864 4.429797 -2.886080 7.823756 -44.870022 12.788676 -9.085622 32.852135 -0.675056 -4.457825 2.558372 0.368820 -0.294440 0.358970 -3.667585 -4.341445 -7.826233 12.732719 -10.970357 18.592647 -4.163470 -9.586754 1.171237 0.831311 -5.906193 -8.451908 -12.825790 13.128079 28.576571 1.789710 9.986320 -24.110860 -17.009305 -6.912380 2.196965 -47.835379 -11.751409 -0.931649 -53.299230 -28.338708 10.149623 -3.275773 3.529078 0.693970 -0.202750 0.438000 0.188310 15.857444 6.895380 3.767371 54.581817 3.367510 -9.923700 34.477873 37.083167 7.096725 2.291414 -1.702755 0.088880 -0.071040 -0.448780 -0.244720 
0.141950 16.320540 -6.034410 -2.922133 -8.943746 5.943666 -15.249393 13.732563 2.392200 1.728444 -0.611548 -0.056764 -2.796291 7.455489 27.326321 0.084650 5.781225 2.515605 0.952180 0.713700 0.815030 18.399848 -8.766364 4.627448 -1.972975 9.003608 -46.413354 12.134675 -9.008297 34.648472 -0.711763 -4.608444 2.514949 0.368030 -0.285790 0.350320 -3.598160 -4.488293 -7.908925 12.022697 -10.710202 18.882823 -3.397694 -9.330653 0.099581 0.691513 -6.400600 -8.305825 -13.719452 14.299353 27.860165 2.373450 10.544830 -23.896570 -17.862790 -5.959057 2.031387 -49.548431 -10.283594 -1.547010 -50.220555 -25.913291 8.112252 -3.273167 3.505426 0.691530 -0.208470 0.436100 0.197660 17.129477 6.446501 3.479375 54.095490 2.859608 -9.929299 34.590749 36.147233 6.944292 2.311096 -1.688162 0.088110 -0.064400 -0.453680 -0.235440 
